<?xml version="1.0" encoding="utf-8"?>
<!-- Generator: Adobe Illustrator 22.1.0, SVG Export Plug-In . SVG Version: 6.00 Build 0)  -->
<svg version="1.1" id="logo" xmlns="http://www.w3.org/2000/svg" xmlns:xlink="http://www.w3.org/1999/xlink" x="0px" y="0px"
	 viewBox="0 0 366 200" style="enable-background:new 0 0 366 200;" xml:space="preserve">
<style type="text/css">
	.st0{fill:#F12639;}
	.st1{enable-background:new    ;}
	.st2{fill:#FFFFFF;}
</style>
<rect id="logo_bg" class="st0" width="366" height="200"/>
<g class="st1">
	<path class="st2" d="M104.1,130.5c-2.8-2.6-4.2-5.9-4.2-9.7h2.8c0,3.1,1.1,5.7,3.4,7.9c2.3,2.2,5,3.3,8.2,3.3c3.5,0,6.5-0.9,9-2.8
		c2.5-1.9,3.7-4.1,3.7-6.7c0-2.3-1.1-4.2-3.3-5.7c-2.1-1.5-5-2.5-8.6-2.8c-4.4-0.4-7.9-1.6-10.6-3.8c-2.6-2.1-4-4.8-4-7.9
		c0-3.1,1.3-5.7,4-7.9c2.7-2.2,5.9-3.3,9.7-3.3c4.1,0,7.6,1.1,10.5,3.4c2.9,2.3,4.3,5,4.3,8.2h-2.8c0-2.5-1.2-4.6-3.5-6.3
		c-2.3-1.8-5.1-2.6-8.5-2.6c-3,0-5.6,0.8-7.8,2.5c-2.1,1.6-3.2,3.6-3.2,6c0,2.3,1.1,4.3,3.3,5.8c2.3,1.6,5.3,2.5,9,2.9
		c4.3,0.4,7.7,1.6,10.3,3.7c2.6,2.1,3.8,4.7,3.8,7.7c0,3.3-1.5,6.2-4.5,8.6c-3,2.4-6.7,3.5-10.9,3.5
		C110.2,134.6,106.9,133.2,104.1,130.5z"/>
	<path class="st2" d="M135.9,133.5V92.3h18.6c2.7,0,5,1.1,6.8,3.3c1.9,2.2,2.9,4.8,2.9,7.9c0,3.2-1,5.9-2.9,8.2
		c-1.9,2.3-4.1,3.4-6.8,3.4h-15.9v18.5H135.9z M154,112.4c2,0,3.8-0.8,5.2-2.5c1.4-1.6,2.2-3.6,2.2-6c0-2.5-0.7-4.6-2.2-6.3
		c-1.4-1.7-3.2-2.6-5.2-2.6h-15.4v17.4H154z"/>
	<path class="st2" d="M181.8,133.5v-17.9l-15.9-23.3h4l13.4,20.1l13-20.1h4L185,115.6v17.9H181.8z"/>
	<path class="st2" d="M205,133.5V92.3h19.7c2.8,0,5.2,1.1,7.2,3.2c2,2.1,3,4.6,3,7.7c0,2.6-0.6,4.9-1.8,6.9
		c-1.3,1.9-2.8,3.1-4.7,3.4c1.7,0.5,3.1,1.9,4.2,4.4c1.1,2.5,1.6,5.4,1.6,8.9c0,1.9,0,3.4,0.1,4.4c0.1,1.2,0.3,2,0.6,2.4h-2.8
		c-0.5-0.6-0.8-1.6-0.9-3.1l-0.2-5.9c0-2.8-0.7-5.2-2-7.2c-1.3-1.9-2.9-2.9-4.8-2.9h-16.4v19.1H205z M224.2,111.9
		c2.2,0,4.1-0.8,5.6-2.5c1.5-1.6,2.3-3.6,2.3-6c0-2.3-0.8-4.3-2.3-6c-1.6-1.6-3.5-2.4-5.6-2.4h-16.4v16.9H224.2z"/>
	<path class="st2" d="M242.2,133.5V92.3h26.9V95H245v15.9h22.1v2.6H245v17.5h24.1v2.6H242.2z"/>
</g>
</svg>
